<?xml version="1.0" encoding="UTF-8"?>
<svg id="Layer_1" xmlns="http://www.w3.org/2000/svg" viewBox="0 0 400.5 400.55">
  <defs>
    <style>
      .cls-1 {
        fill: #1a2e35;
      }

      .cls-1, .cls-2, .cls-3, .cls-4, .cls-5 {
        stroke: #1a2e35;
        stroke-linecap: round;
        stroke-linejoin: round;
      }

      .cls-2, .cls-6 {
        fill: #5ae4a7;
      }

      .cls-3 {
        fill: none;
      }

      .cls-4, .cls-7 {
        fill: #fff;
      }

      .cls-5 {
        fill: #b6bcbe;
      }

      .cls-7 {
        opacity: .7;
      }
    </style>
  </defs>
  <g>
    <path class="cls-6" d="M220.6,3.62c36.47,7.34,77.93,27.63,94.87,62.81,25.61,53.15,71.67,52.62,83.51,153.27,1.85,15.69,1.96,30.45.58,44.25-.74,7.42-1.92,14.56-3.51,21.41-14.3,62.2-61.49,101.01-115.57,112.26-71.12,14.81-113.28-29.71-138.48-59-25.2-29.29-108.96-56.04-121.38-154.9-1.89-15.07-2.23-30.36-.62-45.48,3.66-34.52,18.07-71.32,43.9-95.5,1.94-1.82,3.94-3.57,6-5.28C110.08,4.2,170.88-6.39,220.6,3.62Z"/>
    <path class="cls-7" d="M220.6,3.62c36.47,7.34,77.93,27.63,94.87,62.81,25.61,53.15,71.67,52.62,83.51,153.27,1.85,15.69,1.96,30.45.58,44.25-.74,7.42-1.92,14.56-3.51,21.41-14.3,62.2-61.49,101.01-115.57,112.26-71.12,14.81-113.28-29.71-138.48-59-25.2-29.29-108.96-56.04-121.38-154.9-1.89-15.07-2.23-30.36-.62-45.48,3.66-34.52,18.07-71.32,43.9-95.5,1.94-1.82,3.94-3.57,6-5.28C110.08,4.2,170.88-6.39,220.6,3.62Z"/>
  </g>
  <g>
    <line class="cls-3" x1="107.6" y1="99.86" x2="115.56" y2="107.83"/>
    <line class="cls-3" x1="115.56" y1="99.86" x2="107.6" y2="107.83"/>
  </g>
  <g>
    <line class="cls-3" x1="310.32" y1="289.71" x2="318.28" y2="297.67"/>
    <line class="cls-3" x1="318.28" y1="289.71" x2="310.32" y2="297.67"/>
  </g>
  <path class="cls-3" d="M48.86,84.2c0-2.77-2.24-5.01-5.01-5.01s-5.01,2.24-5.01,5.01,2.24,5.01,5.01,5.01,5.01-2.24,5.01-5.01Z"/>
  <path class="cls-3" d="M210.51,17.79c0-2.77-2.24-5.01-5.01-5.01s-5.01,2.24-5.01,5.01,2.24,5.01,5.01,5.01,5.01-2.24,5.01-5.01Z"/>
  <circle class="cls-3" cx="366.52" cy="295.35" r="5.01"/>
  <path class="cls-3" d="M99.61,255.25c0-2.77-2.24-5.01-5.01-5.01s-5.01,2.24-5.01,5.01,2.24,5.01,5.01,5.01,5.01-2.24,5.01-5.01Z"/>
  <path class="cls-3" d="M398.48,103c0-2.77-2.24-5.01-5.01-5.01s-5.01,2.24-5.01,5.01,2.24,5.01,5.01,5.01,5.01-2.24,5.01-5.01Z"/>
  <g>
    <g>
      <path class="cls-4" d="M282.16,355.47l-.4-2.62c.13-.02,12.97-2.02,19.11-7.93,1.32-1.27,1.28-2.18,1.15-2.76-1.42-5.9-23.13-15.1-66.37-28.14-7.12-2.15-14.02-4.2-20.63-6.16-43.17-12.81-71.69-21.28-73.66-30.89-.49-2.4.59-4.73,3.22-6.91,14.96-12.43,74.52-16.93,77.05-17.12l.19,2.65c-.61.04-61.24,4.63-75.55,16.51-2.74,2.27-2.42,3.83-2.32,4.34,1.65,8.05,32.62,17.24,71.82,28.88,6.61,1.96,13.51,4.01,20.64,6.16,57.75,17.42,66.9,24.74,68.18,30.06.45,1.88-.18,3.66-1.89,5.29-6.75,6.49-19.99,8.55-20.55,8.64Z"/>
      <path class="cls-1" d="M146.46,268.7l3.83.83c19.16-9.98,70.97-13.89,71.53-13.93l-.19-2.65c-2.43.18-57.67,4.36-75.17,15.75Z"/>
    </g>
    <g>
      <path class="cls-2" d="M289.28,358.31c1.01-3.27-.24-6.84-3.1-8.72-3.86-2.53-10.88-5.62-22.79-6.47-21.08-1.51-35.39,6.27-42.16,12.8-6.78,6.53-5.27,14.31,4.52,19.07,9.79,4.77,16.82,6.02,25.1,4.77,8.28-1.25,21.84-7.78,26.6-11.04,4.77-3.26,10.54-6.27,11.8-10.29.01-.04.02-.08.04-.12Z"/>
      <path class="cls-4" d="M256.86,373.74c-11.8,8.03-23.09,4.27-23.09,4.27l-.26.22c6.11,2.04,11.4,2.44,17.33,1.54,8.28-1.25,21.84-7.78,26.6-11.04,4.77-3.26,10.54-6.27,11.8-10.29.01-.04.02-.08.04-.12.1-.32.17-.65.23-.98-7.43,1.8-22.2,9.3-32.64,16.41Z"/>
    </g>
    <path class="cls-4" d="M239.55,359.93c0,1.8-2.19,3.26-4.89,3.26s-4.89-1.46-4.89-3.26,2.19-3.26,4.89-3.26,4.89,1.46,4.89,3.26Z"/>
  </g>
  <g>
    <g>
      <path class="cls-4" d="M140.93,310.03l-.54-2.6c7.94-1.64,13.19-4.02,13.93-5.2-.81-.86-4.21-2.66-6.99-4.12-10.12-5.34-27.06-14.29-21.68-25.83,3.15-6.76,20.3-12.67,52.43-18.06,23.31-3.92,46.05-6.02,46.28-6.04l.24,2.64c-.23.02-22.88,2.11-46.1,6.01-40.34,6.78-48.93,13.29-50.46,16.57-4.32,9.25,10.63,17.14,20.51,22.36,6.01,3.17,8.75,4.62,8.46,6.63-.57,4-11.45,6.67-16.1,7.64Z"/>
      <path class="cls-1" d="M224.37,248.18c-.23.02-22.97,2.12-46.28,6.04-21.53,3.62-36.32,7.46-44.7,11.64l4.4.95c7.26-2.97,19.66-6.44,40.73-9.98,23.21-3.9,45.87-5.99,46.1-6.01l-.24-2.64Z"/>
    </g>
    <g>
      <polygon class="cls-4" points="223.29 328.95 175.31 356.26 .53 295.64 53.68 276.49 223.29 328.95"/>
      <g>
        <polygon class="cls-1" points="146.21 315.07 151.91 316.82 157.88 313.71 152.24 312.02 146.21 315.07"/>
        <polygon class="cls-1" points="137.36 307.8 132.42 310.84 143.77 314.32 149.78 311.29 137.64 307.65 137.36 307.8"/>
        <polygon class="cls-1" points="154.32 317.56 160.39 319.43 166.43 316.27 160.3 314.44 154.32 317.56"/>
        <polygon class="cls-1" points="115.55 305.66 121.04 307.34 126.67 304.37 121.63 302.86 115.55 305.66"/>
        <polygon class="cls-1" points="123.43 308.08 130.17 310.15 135.35 306.96 129.08 305.09 123.43 308.08"/>
        <polygon class="cls-1" points="150.75 324.45 144.75 322.56 138.79 325.66 144.71 327.6 150.75 324.45"/>
        <polygon class="cls-1" points="162.79 320.16 170.46 322.52 176.59 319.32 168.86 317 162.79 320.16"/>
        <polygon class="cls-1" points="100.88 301.15 106.12 302.76 111.94 299.95 106.56 298.34 100.88 301.15"/>
        <polygon class="cls-1" points="169.36 330.34 163.09 328.36 156.88 331.6 163.43 333.74 169.36 330.34"/>
        <polygon class="cls-1" points="176.53 326.23 170.63 324.42 165.3 327.2 171.44 329.15 176.53 326.23"/>
        <polygon class="cls-1" points="172.86 323.26 178.63 325.03 184.48 321.68 179.02 320.04 172.86 323.26"/>
        <polygon class="cls-1" points="160.71 327.61 153.13 325.21 147.06 328.37 154.54 330.83 160.71 327.61"/>
        <polygon class="cls-1" points="193.72 324.44 186.81 322.38 180.95 325.74 187.75 327.83 193.72 324.44"/>
        <polygon class="cls-1" points="185.63 329.03 178.84 326.94 173.73 329.87 180.41 331.99 185.63 329.03"/>
        <polygon class="cls-1" points="114.37 300.74 108.61 303.53 113.02 304.88 119.07 302.09 114.46 300.71 114.37 300.74"/>
        <polygon class="cls-1" points="32.27 296.38 37.21 294.22 34.17 293.22 28.98 295.27 32.27 296.38"/>
        <polygon class="cls-1" points="33.68 291.2 39.64 293.16 44.76 290.91 38.7 289 33.68 291.2"/>
        <polygon class="cls-1" points="41.16 287.92 47.22 289.84 51.66 287.89 45.52 286 41.16 287.92"/>
        <polygon class="cls-1" points="58.19 301.1 54.63 299.93 49.12 302.07 53.11 303.42 58.19 301.1"/>
        <polygon class="cls-1" points="44.63 296.65 39.73 295.05 34.76 297.22 39.63 298.87 44.63 296.65"/>
        <polygon class="cls-1" points="49.78 290.64 52.37 291.47 56.63 289.41 54.25 288.68 49.78 290.64"/>
        <polygon class="cls-1" points="51.98 299.06 47.14 297.48 42.1 299.71 46.5 301.19 51.98 299.06"/>
        <polygon class="cls-1" points="93.47 298.88 98.42 300.4 104.08 297.6 99.24 296.15 93.47 298.88"/>
        <polygon class="cls-1" points="79.51 294.59 83.58 295.84 88.89 293.05 84.86 291.85 79.51 294.59"/>
        <polygon class="cls-1" points="58.7 293.47 63.13 291.41 59.11 290.18 54.83 292.24 58.7 293.47"/>
        <polygon class="cls-1" points="85.98 296.58 90.96 298.11 96.71 295.39 91.32 293.78 85.98 296.58"/>
        <polygon class="cls-1" points="77.82 289.79 72.15 292.33 77.08 293.84 82.42 291.11 77.9 289.76 77.82 289.79"/>
        <polygon class="cls-1" points="64.72 290.05 69.58 291.54 75.3 288.98 70.18 287.45 64.72 290.05"/>
        <polygon class="cls-1" points="56.73 287.6 62.22 289.28 67.65 286.69 62.39 285.12 56.73 287.6"/>
        <polygon class="cls-1" points="128.29 315.49 136.4 318.06 141.5 315.48 132.93 312.84 128.29 315.49"/>
        <polygon class="cls-1" points="138.8 318.82 144.58 320.65 149.68 317.99 143.94 316.22 138.8 318.82"/>
        <polygon class="cls-1" points="168.22 323.68 160.56 321.33 155.34 324.05 162.92 326.45 168.22 323.68"/>
        <polygon class="cls-1" points="146.96 321.4 152.96 323.3 158.15 320.59 152.08 318.73 146.96 321.4"/>
        <polygon class="cls-1" points="65.61 303.53 60.67 301.91 55.56 304.25 60.51 305.92 65.61 303.53"/>
        <polygon class="cls-1" points="104.12 307.84 110.05 309.72 114.33 307.13 108.57 305.36 104.12 307.84"/>
        <polygon class="cls-1" points="112.29 310.43 118.06 312.25 122.47 309.63 116.6 307.83 112.29 310.43"/>
        <polygon class="cls-1" points="120.32 312.97 126 314.77 130.61 312.13 124.76 310.34 120.32 312.97"/>
        <polygon class="cls-1" points="62.56 296.55 58.83 295.36 53.68 297.76 57.64 299.06 62.56 296.55"/>
        <polygon class="cls-1" points="54.14 286.8 59.78 284.33 51.16 281.75 51.17 281.8 44.86 283.95 54.14 286.8"/>
        <polygon class="cls-1" points="41.98 283.06 48.32 280.9 46.51 280.36 40.38 282.57 41.98 283.06"/>
        <polygon class="cls-1" points="208.68 327.08 217.34 329.67 219.59 328.39 211.05 325.78 208.68 327.08"/>
        <polygon class="cls-1" points="56.33 294.57 52.51 293.36 47.57 295.75 51.22 296.95 56.33 294.57"/>
        <polygon class="cls-1" points="96.8 305.53 101.8 307.11 106.23 304.64 101.21 303.1 96.8 305.53"/>
        <polygon class="cls-1" points="42.16 293.98 45.14 294.96 50.06 292.59 47.32 291.72 42.16 293.98"/>
        <polygon class="cls-1" points="88.97 303.05 94.47 304.79 98.85 302.38 93.23 300.65 88.97 303.05"/>
        <polygon class="cls-1" points="84.55 303.51 79.62 301.94 74.46 304.57 79.64 306.27 84.55 303.51"/>
        <polygon class="cls-1" points="92.33 305.97 86.86 304.24 81.92 307.02 87.25 308.77 92.33 305.97"/>
        <polygon class="cls-1" points="108.03 310.93 102 309.03 96.83 311.91 103.04 313.94 108.03 310.93"/>
        <polygon class="cls-1" points="142.37 321.8 136.55 319.96 130.59 322.97 136.44 324.89 142.37 321.8"/>
        <polygon class="cls-1" points="116.02 313.46 110.27 311.64 105.26 314.67 110.88 316.51 116.02 313.46"/>
        <polygon class="cls-1" points="134.14 319.2 118.28 314.18 113.11 317.24 128.21 322.2 134.14 319.2"/>
        <polygon class="cls-1" points="99.68 308.29 94.66 306.7 89.55 309.52 94.54 311.16 99.68 308.29"/>
        <polygon class="cls-1" points="75.1 298.66 79.46 300.04 83.89 297.78 79.53 296.45 75.1 298.66"/>
        <polygon class="cls-1" points="67.21 296.16 72.68 297.89 77.08 295.69 71.49 293.98 67.21 296.16"/>
        <polygon class="cls-1" points="77.22 301.18 72.82 299.79 67.58 302.32 72.1 303.8 77.22 301.18"/>
        <polygon class="cls-1" points="81.86 300.8 86.66 302.32 90.9 299.94 86.32 298.53 81.86 300.8"/>
        <polygon class="cls-1" points="61.2 294.26 64.81 295.4 69.06 293.23 65.66 292.19 61.2 294.26"/>
        <polygon class="cls-1" points="70.36 299.01 64.97 297.31 60.01 299.83 65.15 301.52 70.36 299.01"/>
        <polygon class="cls-1" points="31.16 290.38 36.15 288.19 30.12 286.28 24.67 288.25 31.16 290.38"/>
        <polygon class="cls-1" points="80.51 314.54 53.21 305.32 53.19 305.33 53.18 305.31 39.71 300.76 30.77 304.72 72.02 318.99 80.51 314.54"/>
        <polygon class="cls-1" points="14.3 299.03 22.85 295.07 18.9 293.74 9.63 297.42 14.3 299.03"/>
        <polygon class="cls-1" points="29.86 297.44 25.28 295.89 16.71 299.86 20.97 301.33 29.86 297.44"/>
        <polygon class="cls-1" points="37.23 299.93 32.35 298.28 23.43 302.19 28.31 303.87 37.23 299.93"/>
        <polygon class="cls-1" points="103.67 322.36 98.6 320.65 89.75 325.12 95.29 327.04 103.67 322.36"/>
        <polygon class="cls-1" points="87.83 317.01 82.83 315.32 74.31 319.78 79.03 321.41 87.83 317.01"/>
        <polygon class="cls-1" points="96.25 319.85 90.19 317.81 81.37 322.22 87.42 324.32 96.25 319.85"/>
        <polygon class="cls-1" points="71.65 286.04 75.14 284.21 68.85 282.29 64.9 284.02 71.65 286.04"/>
        <polygon class="cls-1" points="74.08 286.77 77.81 287.89 81.81 286.25 77.55 284.95 74.08 286.77"/>
        <polygon class="cls-1" points="118.19 327.26 105.93 323.12 97.53 327.81 109.16 331.83 118.19 327.26"/>
        <polygon class="cls-1" points="80.51 288.7 84.74 289.96 88.53 288.31 84.48 287.07 80.51 288.7"/>
        <polygon class="cls-1" points="18.85 291.85 18.9 291.83 18.91 291.87 26.39 294.4 31.54 292.36 21.97 289.22 16.7 291.13 18.85 291.85"/>
        <polygon class="cls-1" points="57.39 281.77 62.28 283.24 66.25 281.5 61.53 280.05 57.39 281.77"/>
        <polygon class="cls-1" points="42.93 285.21 37.61 283.57 32.86 285.29 38.6 287.11 42.93 285.21"/>
        <polygon class="cls-1" points="179.71 340.94 172.41 338.55 166.7 341.78 173.81 344.18 179.71 340.94"/>
        <polygon class="cls-1" points="206.5 328.27 200.29 331.68 209.07 334.38 215.22 330.88 206.5 328.27"/>
        <polygon class="cls-1" points="54.71 280.97 58.88 279.24 53.86 277.71 49.3 279.35 54.71 280.97"/>
        <polygon class="cls-1" points="198.13 332.87 192.66 335.86 201.52 338.67 206.96 335.58 198.13 332.87"/>
        <polygon class="cls-1" points="173.98 346.1 164.87 351.1 174.06 354.27 183.05 349.16 173.98 346.1"/>
        <polygon class="cls-1" points="190.51 337.04 184.14 340.53 193.08 343.46 199.42 339.86 190.51 337.04"/>
        <polygon class="cls-1" points="16.72 292.85 14.03 292.09 4.35 295.59 7.07 296.53 16.72 292.85"/>
        <polygon class="cls-1" points="171.7 345.33 164.64 342.95 155.79 347.96 162.61 350.32 171.7 345.33"/>
        <polygon class="cls-1" points="144.4 336.11 137.01 333.62 127.97 338.34 135.29 340.87 144.4 336.11"/>
        <polygon class="cls-1" points="162.39 342.19 156.01 340.03 155.85 340.13 155.75 339.94 146.72 336.9 137.59 341.66 153.56 347.19 162.39 342.19"/>
        <polygon class="cls-1" points="134.69 332.83 128.84 330.86 119.87 335.54 125.67 337.54 134.69 332.83"/>
        <polygon class="cls-1" points="191.01 344.64 182.02 341.7 176.09 344.95 185.11 347.99 191.01 344.64"/>
        <polygon class="cls-1" points="87.36 290.75 91.17 291.89 94.88 290.25 91.12 289.1 87.36 290.75"/>
        <polygon class="cls-1" points="126.52 330.07 120.54 328.06 111.49 332.64 117.57 334.74 126.52 330.07"/>
        <polygon class="cls-1" points="131.65 304.01 137.47 305.75 140.47 304.19 135.16 302.57 131.65 304.01"/>
        <polygon class="cls-1" points="161.37 334.93 154.69 332.74 148.89 335.76 155.82 338.1 161.37 334.93"/>
        <polygon class="cls-1" points="142.52 328.75 136.6 326.81 131.01 329.73 136.86 331.7 142.52 328.75"/>
        <polygon class="cls-1" points="204.13 327.56 196.07 325.15 190.07 328.54 197.93 330.96 204.13 327.56"/>
        <polygon class="cls-1" points="170.14 337.8 163.63 335.67 158.06 338.86 164.46 341.02 170.14 337.8"/>
        <polygon class="cls-1" points="195.77 332.14 187.96 329.74 182.71 332.71 190.33 335.12 195.77 332.14"/>
        <polygon class="cls-1" points="178.31 333.18 171.65 331.07 165.69 334.48 172.22 336.62 178.31 333.18"/>
        <polygon class="cls-1" points="188.18 336.3 180.61 333.9 174.49 337.37 181.84 339.78 188.18 336.3"/>
        <polygon class="cls-1" points="152.35 331.97 144.87 329.52 139.18 332.49 146.57 334.98 152.35 331.97"/>
        <polygon class="cls-1" points="87.7 310.77 82.35 309.02 77.13 311.53 82.67 313.4 87.7 310.77"/>
        <polygon class="cls-1" points="95.31 313.27 90.04 311.54 84.99 314.19 90.06 315.9 95.31 313.27"/>
        <polygon class="cls-1" points="79.92 308.22 75.41 306.74 70.51 309.3 74.73 310.72 79.92 308.22"/>
        <polygon class="cls-1" points="125.98 323.32 106.15 316.82 100.81 319.53 120.41 326.15 125.98 323.32"/>
        <polygon class="cls-1" points="134.25 326.04 128.36 324.1 122.76 326.94 128.69 328.94 134.25 326.04"/>
        <polygon class="cls-1" points="103.78 316.04 97.7 314.05 92.42 316.69 98.46 318.73 103.78 316.04"/>
        <polygon class="cls-1" points="109.06 297.25 114.37 298.84 118.03 297.33 112.65 295.69 109.06 297.25"/>
        <polygon class="cls-1" points="117.06 299.64 121.52 300.98 125.05 299.48 120.7 298.15 117.06 299.64"/>
        <polygon class="cls-1" points="124.17 301.77 128.96 303.2 132.49 301.75 127.67 300.28 124.17 301.77"/>
        <polygon class="cls-1" points="139.9 306.48 144.75 307.93 144.74 307.93 147.86 306.45 142.88 304.93 139.9 306.48"/>
        <polygon class="cls-1" points="73.06 305.97 68.07 304.34 62.93 306.74 68.18 308.51 73.06 305.97"/>
        <polygon class="cls-1" points="101.59 295.01 106.44 296.46 110.05 294.89 104.99 293.34 101.59 295.01"/>
        <polygon class="cls-1" points="93.78 292.67 99.09 294.26 102.52 292.59 97.46 291.04 93.78 292.67"/>
        <polygon class="cls-1" points="181.27 318.87 186.59 320.46 189.05 319.05 183.92 317.48 181.27 318.87"/>
        <polygon class="cls-1" points="171.11 315.83 178.84 318.14 181.52 316.75 173.84 314.4 171.11 315.83"/>
        <polygon class="cls-1" points="208.69 325.06 200.6 322.58 198.2 323.94 206.3 326.37 208.69 325.06"/>
        <polygon class="cls-1" points="188.93 321.16 195.85 323.24 198.27 321.87 191.37 319.76 188.93 321.16"/>
        <polygon class="cls-1" points="147.27 308.69 152.08 310.13 155.15 308.68 150.38 307.22 147.27 308.69"/>
        <polygon class="cls-1" points="154.61 310.89 160.12 312.54 162.94 311.07 157.66 309.45 154.61 310.89"/>
        <polygon class="cls-1" points="162.55 313.26 168.68 315.1 171.43 313.66 165.35 311.8 162.55 313.26"/>
      </g>
      <polygon class="cls-4" points="175.31 356.26 174.91 361.69 222.78 335.01 223.29 328.95 175.31 356.26"/>
      <polygon class="cls-4" points="216.32 338.54 216.32 345.12 222.45 341.81 222.78 335.01 216.32 338.54"/>
      <polygon class="cls-1" points="216.32 345.12 207.87 343.46 216.49 338.54 216.32 345.12"/>
      <polygon class="cls-4" points="174.91 361.69 .5 300.38 .53 295.64 175.31 356.26 174.91 361.69"/>
    </g>
  </g>
  <g>
    <g>
      <g>
        <polygon class="cls-1" points="214.42 260.96 163.7 279.25 256.28 302.82 307.94 280.95 214.42 260.96"/>
        <polygon class="cls-4" points="163.7 279.25 163.7 282.12 256.12 306.6 256.28 302.82 163.7 279.25"/>
        <polygon class="cls-4" points="256.28 302.82 307.94 280.95 307.56 284.11 256.12 306.6 256.28 302.82"/>
      </g>
      <polygon class="cls-4" points="220.39 238.15 218.3 270.5 215.38 271.75 268.18 284.27 271.1 283.02 273.4 247.96 220.39 238.15"/>
      <polygon class="cls-1" points="217.47 239.4 215.38 271.75 268.18 284.27 270.47 249.21 217.47 239.4"/>
      <g>
        <path class="cls-4" d="M391.12,35.45l-3.16-1.2-4.42.27-.37,1.21-246.55,14.68c-1.35.08-2.44,1.12-2.58,2.46l-16.3,168.52c-.12,1.15.66,2.21,1.8,2.42l229.91,44.05-2.55,1.53,10.19,1.98,1.19-.16,2.88-1.39c.93-.27,1.66-1.05,1.79-2.07l29.84-229.63c.16-1.22-.6-2.31-1.68-2.67Z"/>
        <path class="cls-1" d="M132.57,51.24l-18.16,171.53c-.12,1.15.66,2.21,1.8,2.42l240.47,46.08c1.41.27,2.76-.71,2.95-2.13l29.84-232.24c.2-1.55-1.06-2.9-2.62-2.81l-251.7,14.69c-1.35.08-2.44,1.12-2.58,2.46Z"/>
        <polygon class="cls-2" points="138.09 56.42 122.81 198.69 352.88 233.98 378.8 43.08 138.09 56.42"/>
        <g>
          <path class="cls-3" d="M163.43,150.71c36.82-11.27,78.05-23.69,116.15-34.69,38.6-11.15,69.65-15.35,91.37-16.59"/>
          <path class="cls-3" d="M136.03,77.7s74.34,1.72,155.55,34.88"/>
          <path class="cls-3" d="M195.11,210.48s56.44-52.97,109.91-80.85c45.03-23.49,64.43-24.05,64.43-24.05"/>
        </g>
        <path class="cls-4" d="M116.21,225.2l240.47,46.08c1.41.27,2.76-.71,2.95-2.13l2.9-22.56-246.38-40.12-1.73,16.31c-.12,1.15.66,2.21,1.8,2.42Z"/>
      </g>
    </g>
    <g>
      <polygon class="cls-1" points="122.81 198.69 157.53 204.02 164.86 137.66 129.64 135.13 122.81 198.69"/>
      <g>
        <polygon class="cls-5" points="161.01 158.25 153.64 157.4 150.86 179.21 158.58 180.21 161.01 158.25"/>
        <path class="cls-5" d="M149.65,155.94c0,.06-.03.11-.05.15l11.5,1.32,1.87-16.89-11.14-.8-2.17,16.21Z"/>
        <polygon class="cls-5" points="150.03 179.1 152.81 157.31 141.81 156.04 139.12 177.69 150.03 179.1"/>
        <polygon class="cls-5" points="152.34 180.25 139.02 178.52 136.61 197.9 150.02 199.95 152.34 180.25"/>
        <path class="cls-5" d="M148.84,156c-.02-.06-.02-.11-.02-.18l2.17-16.16-7.09-.51-1.99,16.05,6.93.8Z"/>
        <polygon class="cls-5" points="153.17 180.36 150.85 200.08 156.3 200.92 158.49 181.04 153.17 180.36"/>
      </g>
    </g>
  </g>
</svg>