<?xml version="1.0" encoding="UTF-8"?>
<svg id="Layer_1" xmlns="http://www.w3.org/2000/svg" xmlns:xlink="http://www.w3.org/1999/xlink" viewBox="0 0 189.25 386.66">
  <defs>
    <style>
      .cls-1 {
        fill: url(#linear-gradient-2);
      }

      .cls-2 {
        fill: #050505;
      }

      .cls-3 {
        fill: #302f2f;
      }

      .cls-4 {
        fill: #fefefe;
      }

      .cls-5 {
        fill: #565556;
      }

      .cls-6 {
        fill: #1a1919;
      }

      .cls-7 {
        fill: url(#linear-gradient);
      }

      .cls-8 {
        fill: #272324;
      }
    </style>
    <linearGradient id="linear-gradient" x1="-1542.49" y1="1858.53" x2="-1541.82" y2="1858.77" gradientTransform="translate(8473.78 10152.47) scale(5.45 -5.45)" gradientUnits="userSpaceOnUse">
      <stop offset="0" stop-color="#30292c"/>
      <stop offset="1" stop-color="#3b3c3b"/>
    </linearGradient>
    <linearGradient id="linear-gradient-2" x1="-1542.71" y1="1858.96" x2="-1542.33" y2="1858.97" gradientTransform="translate(8473.78 10152.47) scale(5.45 -5.45)" gradientUnits="userSpaceOnUse">
      <stop offset="0" stop-color="#141715"/>
      <stop offset="1" stop-color="#3a3739"/>
    </linearGradient>
  </defs>
  <path class="cls-2" d="M20.67,21.37c-.23-4.18.03-8.65.49-12.81.23-2.09.63-6.06,2.45-7.39,3.92-2.88,26.29.7,31.92,1.17,11.11,1,22.25,1.59,33.4,1.77,11.16.18,22.3-.04,33.44-.67,6.64-.36,13.41-.84,20.02-1.56,6.32-.68,15.78-2.58,22-1.62,1.48.23,2.08.64,2.93,1.85,1.65,4.09,2.75,14.55,2.26,19.09,2.95,6.66,5.09,13.65,7.22,20.61,3.88,12.64,9.01,30.14,9.46,43.37.13,3.87-.55,7.6-.85,11.44-.41,5.16-.59,10.39-.79,15.56,2.19,1.7,2.15,3.44,2.47,6.03.28,2.25,2.34,16.62,2.14,17.37-.04.16-.34.53-.42.62-.43.46-1.42.73-2.01.92.87,13.33-.62,26.74-1.44,40.03-.12,1.93.16,8.32-.77,9.49-.92.43-1.84.64-2.83.87-1.18,15.34-3.17,30.63-4.81,45.93-.53,4.95-1.43,9.89-1.69,14.86-.28,5.24,1.19,10.39.97,15.59-.58,13.5-1.97,27.02-3.17,40.48-1.09,12.17-1.97,24.32-3.28,36.47-.35,3.23,1.27,6.5.7,9.69-.81,4.51-4.76,10.8-7.4,14.49.22,4.5-.66,9.35-1.22,13.82.38.57.95,1.26.85,1.98-.14,1.02-1.04,1.81-1.87,2.32-7.02,4.39-23.41,4.14-31.32,2.15-3.38-.85-6.94-2.2-9.56-4.56.09-4.71-.24-9.83.37-14.49-.07-.58,0-1.17.05-1.75-.02-.03-.05-.06-.07-.09-2.89-3.37-5.08-8.39-5.56-12.81-.55-5,2.66-9.22,2.42-13.98-.21-4.15-1.63-8.31-1.98-12.51-.88-10.45-1.33-20.95-2.07-31.42-.44-6.22-1.12-12.43-1.61-18.65-.16-1.99-.21-4.07-.02-6.06.2-2.1.75-4.3.55-6.4-.21-2.33-1.08-4.69-1.58-6.97-.89-4.03-1.57-8.12-2.28-12.19-3.09-16.91-5.49-33.91-7.2-51.01-.41-4.78-.78-9.57-1.09-14.37-.3-5.19-2.67-54.6-2.99-55.2-.42-.1-.59-.05-.99.11-.18.25-.27.44-.3.75-.69,8.29-1.02,16.66-1.52,24.97-.57,8.72-1.26,17.43-2.06,26.13-1.9,20.23-3.83,40.38-7.38,60.41-1.04,5.88-2.37,11.75-3.8,17.55-.81,3.3-1.92,6.71-2.42,10.07-.45,3.01-.05,6.05.03,9.07.07,2.57-.12,5.21-.38,7.77l-4.27,46.47c-.36,3.8-1.55,7.57-1.79,11.34-.14,2.21.96,4.17,1.52,6.27.39,1.47.62,3.04.71,4.56.29,5.04-1.74,11.99-5.18,15.74-.05.06-.11.11-.16.17-.21,5.51-.18,11.22.2,16.72-3.48,2.96-8.46,4.28-12.87,4.98-8.28,1.32-22.41.91-29.34-4.12.25-1.07.53-2.15.6-3.25.25-3.75-.6-14.17-2.21-17.29-1.73-3.34-6.13-7.81-6.46-11.49-.18-1.96.29-4.12.38-6.09.1-2.27-.12-4.58-.29-6.84l-3.08-45.49c-.68-9.4-1.74-18.85-2.08-28.26-.16-4.35,1.34-8.6,1.1-12.78-.26-4.52-1.07-9.02-1.55-13.53-1.74-16.51-4.06-32.96-5.81-49.47-.96-.39-1.8-.89-2.68-1.42-.81-5.62-.92-11.6-1.23-17.27-.57-9.87-.98-19.75-1.24-29.64-.89-.22-1.68-.35-2.31-1.04-.45-2.32,2.01-24.15,3.06-26.57,1.63-3.73.67-6.32.23-10.15-.8-6.99-.94-14.33.13-21.3,1.29-8.34,4.8-16.38,7.01-24.51,2.33-8.58,3.72-17.49,6.4-25.96.86-2.71,2.01-5.87,3.78-8.11Z"/>
  <path class="cls-8" d="M69.77,16.06l-.09-2.45.25-.26.29.12c.48,1.22.37,2.76.4,4.07-.3-.48-.57-.98-.85-1.47Z"/>
  <path class="cls-6" d="M150.17,20.79c.29,1.72.72,3.38,1.19,5.06l-1.86.34c.77-1.48.6-3.75.67-5.4Z"/>
  <path class="cls-8" d="M139.09,15.36c-.14-1.17-.73-3.69-.2-4.74l.43.03c.53.82.42,2.1.5,3.08-.03.63.06,1.54-.32,2.02l-.42-.4Z"/>
  <path class="cls-8" d="M64.81,18.03c0-1.34-.41-4.35.35-5.4l.51.26.1.21c-.03,1.86-.16,3.71-.29,5.56-.22.86-.29,1.82-.43,2.7-.13-1.1-.17-2.23-.23-3.34Z"/>
  <path class="cls-8" d="M66.16,20.35c.05,1.12-.18,3.18.26,4.13.2-.48.33-.9.43-1.41.03,2.23-.25,5.15.22,7.29-.62-.11-.83-.11-1.32-.5.37-3.16.07-6.36.41-9.53Z"/>
  <path class="cls-3" d="M65.47,18.67c.07,2.76.18,7.64.02,10.28-.04.61-.1.69-.53,1.07l-.52-.08c-.32-.42.22-10.68.36-11.92.07,1.11.1,2.23.23,3.34.14-.88.21-1.84.43-2.7Z"/>
  <path class="cls-3" d="M65.67,12.9c.67,0,.99-.12,1.53.29.81,2.39-.13,5.23-.11,7.72-.28.69-.23,1.43-.24,2.17-.1.51-.23.93-.43,1.41-.43-.96-.21-3.01-.26-4.13.06-2.21.39-4.69.1-6.87l-.5-.36-.1-.21Z"/>
  <path class="cls-3" d="M139.82,13.74c.52,3.79.66,7.7.7,11.53,0,.61-.34,1.99-.34,2.07l.26-.51-.14,1.02c-1.28-1.9-1.1-9.8-1.22-12.49l.42.4c.38-.49.29-1.4.32-2.02Z"/>
  <path class="cls-5" d="M49.76,9.61c.23.1.41.24.62.38.34,1.66.12,3.7.11,5.41-.03,4.05-.1,8.09-.19,12.14-.26-.1-.41-.21-.62-.39-.42-2.12-.05-4.71-.02-6.88l.11-10.66Z"/>
  <path class="cls-5" d="M47.98,9.17l.68.29c.44.87-.13,15.14-.17,17.53-.38-.1-.16-.02-.62-.3-.51-2.05.06-14.39.11-17.53Z"/>
  <path class="cls-8" d="M60.09,11.81l.63.29c.67,1.55-.16,14.6-.27,17.33-.41-.09-.21,0-.58-.33-.25-1.76-.06-3.7-.02-5.49.08-3.93.24-7.86.25-11.8Z"/>
  <path class="cls-8" d="M51.4,9.98c.38.16.53.24.83.5.29,2.14.05,4.53.03,6.7-.03,3.59.11,7.26-.18,10.83l-.54-.27c-.52-.94-.08-15.19-.14-17.76Z"/>
  <path class="cls-8" d="M63.61,12.12l.43.42c.35,1.9-.1,16.07-.64,17.49l-.39-.43c-.55-1.7.16-15.54.61-17.47Z"/>
  <path class="cls-8" d="M36.81,6.31c.24.16.39.32.59.54.37,2.26.4,15.58-.19,17.61-.08-.07-.17-.12-.24-.2-.02-.02-.3-.44-.32-.49-.33-.86-.05-16.07.15-17.46Z"/>
  <path class="cls-8" d="M34.98,5.77l.5.26c.62,1.15.24,15.72.15,18.05-.17-.1-.34-.19-.49-.32-.51-.46-.3-15.98-.16-17.99Z"/>
  <path class="cls-3" d="M28.38,6.34c.3-.69.14-1.38.68-2.01l.38.17c-.22,2.45-.48,4.89-.53,7.35-.02,1.1.23,9.58.09,9.91-.05.11-.18.16-.28.23-.45-.24-.45-.24-.58-.71-.63-2.36-.05-12.03.23-14.94Z"/>
  <path class="cls-3" d="M61.87,11.92c.36.16.51.28.75.59,0,1.94-.21,16.41-.55,17.31-.39-.19-.6-.31-.85-.66.14-3.48.26-6.96.36-10.44.05-2.22-.12-4.63.29-6.8Z"/>
  <path class="cls-8" d="M53.21,10.28l.65.34c.75,2.1.19,14.56.08,17.66-.29-.09-.43-.19-.68-.37-.42-2.05-.13-4.51-.12-6.62.02-3.67-.03-7.35.07-11.02Z"/>
  <path class="cls-8" d="M72.21,15.13c.18,1.89.36,14.95-.07,15.85l-.53-.02c-.34-1.18-.56-16.49-.26-17.38l.47-.09c.09.49.12,1.24.39,1.64Z"/>
  <path class="cls-8" d="M30.3,4.23c.09.06.19.1.27.17.42.37.37.86.4,1.37.12,2.09-.19,4.26-.27,6.35-.12,3.45-.05,6.92-.05,10.37l-.53-.15c-.91-1.61-.29-15.71.18-18.11Z"/>
  <path class="cls-8" d="M54.89,10.69c.33.12.63.28.94.42.51,2-.09,13.91-.13,17.1-.1.21-.31.33-.49.47-.31-.37-.35-.75-.38-1.21-.13-1.78.05-3.72.07-5.52.03-3.75.03-7.51,0-11.26Z"/>
  <path class="cls-8" d="M58.59,11.46l.42.24c.47,1.15.27,16.49-.12,17.71l-.48-.26c-.87-1.08-.08-15.1.18-17.68Z"/>
  <path class="cls-7" d="M69.77,16.06c.28.49.55.99.85,1.47-.01,3.64.39,9.87,0,13.09-.73.2-1.34.04-2.06-.09,0-1.33-.44-6.38.25-7.37-.02,2.27.03,4.44.39,6.68l.15-.2-.06.38-.12-.6.23-.15c.25-4.34.44-8.87.36-13.22Z"/>
  <path class="cls-3" d="M130.55,11.95l.49.31c.96,2.65.92,13.89.78,17.21-.32-.12-.61-.28-.91-.45-.18-2.08-.77-15.8-.36-17.08Z"/>
  <path class="cls-3" d="M124.41,30.05c-.42.04-.46.09-.86-.1-.02-1.91-.18-16.25.02-16.71l.75-.29c.54,2.03.64,15.15.09,17.1Z"/>
  <path class="cls-8" d="M126.57,12.62l.88.21c.63,1.25.89,14.92.5,17.04l-.53-.3c-1.08-2.33-.12-8.58-.61-11.53-.17-1.81-.37-3.6-.24-5.42Z"/>
  <path class="cls-3" d="M140.15,10.08c.34.06.66.16.99.26,1.04,2.22,1.34,14.3,1.29,17.35-.41-.04-.57-.09-.93-.24-.6-5.75-.14-11.69-1.34-17.37Z"/>
  <path class="cls-3" d="M117.35,13.59l1,.29c.82,1.2.86,14.78.62,17.08l-.63-.29c-.48-2.01-.3-4.42-.37-6.51-.09-3.53-.29-7.05-.61-10.56Z"/>
  <path class="cls-3" d="M115.53,13.84l1.03.31c.61,1.27.93,14.58.76,16.57-.44.3-.52.23-1.03.24-.41-1.99.06-4.42-.05-6.5-.17-3.1-1.18-7.71-.71-10.62Z"/>
  <path class="cls-8" d="M152.41,7.46l.51.3c.7,2.71.51,5.97.65,8.76.13,2.67.41,5.33.61,7.99v.36s-.43.46-.43.46l-.41-.03c-.77-2.06-1.32-14.47-1.32-17.24,0-.33.17-.38.4-.6Z"/>
  <path class="cls-3" d="M127.74,12.53c.65-.06,1.2-.16,1.83.1.27,2.6.15,5.25.18,7.86.06,3.05.16,6.09.29,9.13l-.83-.09c-1.3-2.04.31-13.15-1.46-17Z"/>
  <path class="cls-3" d="M71.82,13.49c.69.15,1.63.23,2.15.72.34,2.44.32,14.03-.23,16.39l-.28.3c-1.5-2.06.48-13.28-.89-16.04-.34.2-.25.07-.36.27-.27-.4-.3-1.16-.39-1.64Z"/>
  <path class="cls-3" d="M142.36,9.63c.43.04.68.09,1.06.31.09,2.25,1.35,16.14,1,16.99-.08.19-.25.34-.38.5-.36-.17-.35-.08-.48-.38-.2-.46-1.53-16.27-1.46-16.82.03-.22.18-.4.27-.6Z"/>
  <path class="cls-3" d="M121.69,13.17c.5.05.76.07,1.14.4.22,2.54.48,15.21-.21,17.04-.53-.22-.71-.2-1.04-.69.39-1.11.07-14.32.11-16.76Z"/>
  <path class="cls-8" d="M150.22,11.96c-.11-1.1-.51-2.85-.09-3.85l.78-.16c.47.37.44,1.19.51,1.78.34,3.1,1.26,13.75.89,16.1-1.78-1.6-1.69-10.87-2.06-13.65l-.03-.23Z"/>
  <path class="cls-3" d="M144.39,9.2c.39.05.6.14.93.34.17,5.85.86,11.68,1.16,17.53-.47-.06-.75-.11-1.15-.38-.38-2.51-1.71-16-.94-17.49Z"/>
  <path class="cls-3" d="M120.57,13.3l.31.21c.35,1.3.3,14.67,0,16.31-.13.73-.29.73-.88,1.12-.26-2.28-.18-4.69-.25-6.98-.11-3.32-.31-6.63-.38-9.95.33-.51.65-.51,1.2-.7Z"/>
  <path class="cls-3" d="M146.48,8.7c.14.04.3.05.42.13.41.25.34.59.39,1,.24,1.84,1.4,15.25.97,16.4-.09.23-.3.39-.45.58-.16-.2-.36-.37-.49-.59-.38-.66-1.23-14.11-1.29-15.73-.04-.89-.18-1.11.45-1.8Z"/>
  <path class="cls-8" d="M149.5,26.19c-.28-.09-.12,0-.4-.39-.38-3.1-1.51-15.11-.63-17.42l.29-.05c.98,1.58.9,4.4,1,6.22-.1,2.11.12,4.14.41,6.23-.07,1.66.1,3.92-.67,5.4Z"/>
  <path class="cls-3" d="M136.52,10.87c.58-.02.97-.01,1.54.15.16,2.37,1.25,16.23.51,17.39l-.48-.19c-.13-.18-1.03-10.02-1.21-11.41-.15-1.19-.98-5.13-.36-5.94Z"/>
  <path class="cls-1" d="M67.09,20.91c.04.07.08.13.12.2.17.33.18.61.21.98-.13-.14-.07-.06-.15-.23,1.34-1.47.06-7.62.99-8.77l.4.07c.83,2.94.32,6.95.18,10-.68.99-.26,6.05-.25,7.37-.5-.01-1.01-.11-1.5-.16-.48-2.14-.2-5.07-.22-7.29.01-.73-.04-1.48.24-2.17Z"/>
  <path class="cls-6" d="M148.43,360.11c1.39.83,7.89-2.48,10.01-2.71.69-.08,1.17-.05,1.71.4.02.58-.05.55-.35,1.01-4.14.15-7,5.29-11.58,3.03-.21-.48-.3-.95-.02-1.45.06-.1.15-.18.22-.28Z"/>
  <path class="cls-8" d="M164.16,55.74c1.77,2.88,3.73,5.71,5.39,8.64l-3.1,1.14c-1.49-2.39-2.96-4.79-4.42-7.2v-.69c.44-.85,1.35-1.4,2.13-1.9Z"/>
  <path class="cls-8" d="M114.35,14.18l.46.24c.13,2.42-.01,4.83.05,7.24.07,2.65.43,5.28.35,7.94-.02.53,0,1.13-.31,1.58l-.77.04c-.32-3.52.04-7.03-.37-10.56l-.13.13c-.63,3.2-.23,7.09-.26,10.37l-.52.08c-.16-1.85.01-3.76.04-5.62.06-3.74-.13-7.53-.94-11.19l2.41-.23Z"/>
  <path class="cls-6" d="M124.32,12.95c.61,0,1.18-.11,1.78-.2-.01,1.6-.4,4.78.33,6.11l.21-.09.17-.73c.49,2.96-.47,9.2.61,11.53l.53.3c-1.23-.1-2.33.16-3.54.18.55-1.95.45-15.07-.09-17.1Z"/>
  <path class="cls-3" d="M135.19,11.55l.28-.11.22.22c.02,3.33,2.22,14.73.92,16.91l.31-.24-.4.12c-1.03-1.82-.94-13.18-1.95-16.48l-.24-.03c-.57,1.11.94,13.56,1.03,15.96l-.03.62c-.33.24-.33.32-.76.32-.56-1.26-.25-3.55-.29-4.98-.07-3.15-.42-6.17-.92-9.27l-.21.26.05-.21c-.95,3.98,1.5,10.05-.05,14.05l-.23-.12c-.39-2.19-.19-4.56-.28-6.78-.13-3.3-.45-6.56-.81-9.83,1.11-.17,2.23-.28,3.35-.41Z"/>
  <path class="cls-5" d="M103.28,28.95l.12-.35c.33-1,.2-2.36,1.18-3.02.05-.04.12-.06.18-.09.33.15.35.23.47.57.53,1.55.24,3.97.21,5.63.06,7.17.34,13.78,2.01,20.8-.37.36-.75.56-1.29.56-.67-.01-.84-.23-1.26-.67-2.12-7.37-2.36-15.86-1.61-23.43Z"/>
  <path class="cls-6" d="M21.47,336.06c2.39-1.6,7.59-7.63,10.12-10.04.15,2.38-.52,5.58.37,7.78-3.44,3.79-6.96,7.47-10.27,11.38.1-2.99-.5-6.19-.22-9.12Z"/>
  <path class="cls-8" d="M21.96,19.93c.21-5.11.07-10.94,1.27-15.94.15-.64.25-1.23.83-1.58,1.61.28,3.99,1.02,5.44,1.77l-.05.32-.38-.17c-.54.62-.37,1.32-.68,2.01l-.28-.32c-.97,1.23-.67,4.59-.91,6.19-.02,2.27-.08,4.54-.01,6.81.11.82.13,1.65.18,2.48-1.84-.44-3.63-.9-5.41-1.56Z"/>
  <path class="cls-3" d="M27.18,19.02c-.06.45-.09,1.32-.43,1.61-.71-2.56-.43-9.3.08-11.99l-.12.66.2-.04c.11.99.22,1.97.28,2.96-.02,2.27-.08,4.54-.01,6.81Z"/>
  <path class="cls-6" d="M24.69,3.75l.44.27c.27,1.44-.65,13.25-.85,15.64l-.15.28c-.75-1.48,0-14.17.55-16.18Z"/>
  <path class="cls-6" d="M169.55,64.38c2.41,3.57,4.94,7.06,7.6,10.45,1.69,2.18,5.81,6.59,6.77,8.83.62,1.44.38,3.47.34,5-1.85-1.96-3.82-3.87-5.53-5.95-2.88-3.49-5.45-7.33-8.1-11.01-1.36-1.89-3.2-4.07-4.18-6.17l3.1-1.14Z"/>
  <path class="cls-6" d="M148.11,29.36c.94-.06,1.86-.23,2.79-.39,3.88,9.32,8.16,18.07,13.26,26.77-.78.5-1.69,1.05-2.13,1.9v.69c-5.57-8.08-10.72-19.62-13.92-28.96Z"/>
  <path class="cls-6" d="M169.79,40.62c.4.49.73.7.74,1.35-1.96,2.35-3.88,4.57-5.06,7.42,3.93,4.6,14.81,24,17.7,25.65.6,1.55.53,3.82.63,5.49-5.59-7.73-11.2-15.3-16.3-23.38-1.73-2.73-3.7-5.51-4.92-8.51,1.87-2.88,4.86-5.48,7.21-8.01Z"/>
  <path class="cls-5" d="M83.79,28.49c.01-.69-.09-1.49.36-2.05.62-.2.95-.18,1.58-.09.52.38.6.41.72,1.08.16.85,0,1.74.18,2.62,1.42,11.83-1.22,23.22-4.17,34.58-1.17,4.5-2.31,9.04-3.69,13.48l-2.38-1.22c.63-3.86,1.91-7.79,2.89-11.59,3.31-12.82,5.81-23.41,4.51-36.81Z"/>
  <path class="cls-6" d="M155.52,27.94c3.2-.81,6.38-1.72,9.56-2.59-.18,3.8,1.21,7.44,1.05,11.33-2.35-2.51-4.25-5.71-6.22-8.53.31,1.69,1.36,3.26,1.73,5.02l.06.32c-.4,1.12-.92,2.16-1.45,3.23-.11.57-.17,1.15-.25,1.72l.52-.14-.43.65c.81-.84,1.47-3.31,1.95-4.44.86,1.17,1.81,2.27,2.83,3.31,1.02,1.03,2.12,1.99,3.28,2.86-2.35,2-4.44,4.44-6.48,6.75-1.31-3.15-3.07-6.1-4.52-9.19-1.48-3.14-2.72-6.44-4.03-9.66.82-.17,1.6-.38,2.39-.64Z"/>
  <path class="cls-6" d="M39.3,29.46l.39-.87c1-.38,1.95.14,2.96.36-.36.59-.7,1.3-1.12,1.83-.27,2.55-2.56,7.1-3.63,9.7-5.43,13.21-13.18,26.28-22.64,37.01-3.5,3.97-7.48,7.45-10.96,11.4.1-1.92.04-4.09,1.1-5.78,1.01-1.6,2.81-3.01,4.15-4.36,1.83-1.81,3.57-3.72,5.21-5.71,10.61-13.08,19.34-27.48,24.54-43.59Z"/>
  <path class="cls-8" d="M167.32,2.11c1.65,4.09,2.75,14.55,2.26,19.09-4.06.02-8.33,2.17-12.29,3.14-.74.13-1.54.5-2.28.32-.42-.57-.32-1.54-.33-2.24.2-2.87-.42-12.6-1.2-15.24l2.08-.54c1.01-.35,2.08-.61,3.1-.91-.21,4.22.47,7.96.71,12.18l.25.15-.05-1.02.24-.04-.2-.1c-.03-2.13-1.07-9.59-.55-11,.48-.51,1.11-.52,1.77-.63,1.85-.87,5.24-1.56,6.5-3.16Z"/>
  <path class="cls-3" d="M160.83,5.27l.47.16c.9,2.02.25,5.52.11,7.73-.08-1.18-.9-7.19-.58-7.89Z"/>
  <path class="cls-8" d="M25.63,142.54c1.62-1.05,2.93-2.72,4.22-4.13-.42,9.8-.75,19.6-1,29.41-.2,7-.48,13.98-.33,20.99-7.55-.56-14.75-1.45-22.08-3.42-.1-1.14-.17-2.29-.31-3.42,2.96.32,17.19,2.72,18.87,2-.13-.72.02-.14-.2-.66-1.2-2.78.23-36.65.83-40.77Z"/>
  <path class="cls-8" d="M165.09,25.36c1.48-.46,2.89-1.06,4.22-1.85,2.3,5.36,4.33,10.76,5.86,16.4.98,3.62,1.71,7.33,2.66,10.97,2.05,7.88,4.27,16.09,5.34,24.16-2.9-1.65-13.77-21.04-17.7-25.65,1.18-2.85,3.11-5.07,5.06-7.42-.01-.65-.35-.86-.74-1.35-.85-1.43-2.47-2.76-3.65-3.93.16-3.9-1.23-7.54-1.05-11.33Z"/>
  <path class="cls-6" d="M30.69,189.35c.21-19.25,1.02-38.49,1.41-57.74.05-2.39-.29-16.49.17-17.67.89,2.51-.82,6.19.31,8.7.58-.22.53-.39.82-.92l.33.28c-.36.54-.82,1.06-1.09,1.63l.27-.02-.24-.1.12-.17.35.2,1.01-.54c.37.54.31,1.01.34,1.64l1.9,64.18c-.04.06-.08.11-.13.17-.73.94-3.39,4.2-4.42,4.32-4.85.55-8.95.28-13.73-.56-1.46-.26-2.79-.39-4.23-.85-.57-.18-2.73-1.05-3.11-.68-.05.42.02.61.16.99.53,1.41.9,7.48,1.15,9.53l3.24,28c.34,3.05.83,6.08,1.13,9.14.29,2.98.89,6.28.59,9.26-.67-2.7-.68-5.84-.97-8.63-.49-4.88-1.1-9.76-1.65-14.63l-3.17-26.77c-.4-3.42-.95-6.85-1.23-10.28,4.67.99,14.57,3.43,18.93,2.32.61-.16,1.2-.5,1.75-.8Z"/>
  <path class="cls-8" d="M97.54,35.57l4.35-.1c.2,6.12.65,12.53,2.61,18.37l3.17-.02c.54,6.78.85,22.52-.85,28.74-.6,2.2-1.56,3.99-2.92,5.81-2.1,2.05-3.92,3.01-6.72,3.81.59-5.26.23-12.29.28-17.76.16-12.95.19-25.9.09-38.85Z"/>
  <path class="cls-8" d="M181.94,114.62c.79-.07,1.74-.25,2.49.05.37.5.47.7.48,1.32-.28.41-.28.49-.8.59-1.81.34-3.94.22-5.8.31-5.21.27-11.04.53-16.07,1.94l.12.12c4.4-.41,8.81-.87,13.22-1.22,3.18-.25,6.37-.35,9.54-.72.17,4.75.55,9.78,1.5,14.44-4.27.95-8.45,2.16-12.68,3.28-2.2-1-4.28-2.12-6.29-3.47-.83-3.69-1.18-8.18-3.12-11.44-.03,1.13.38,2.28.67,3.37.71,2.79,1.13,5.65,1.82,8.45,2.06,1.44,4.25,2.62,6.31,4.04,3.7-1.01,7.7-2.34,11.48-2.95.84-.14,1.58-.28,2.3.23.1.67.13,1.13,0,1.8-1.56,1.37-13.03,4.14-15.67,4.73-2.9-1.76-5.59-4-8.25-6.11-.52-4.3-1.48-13.15-2.75-16.96,7.16-.62,14.37-.99,21.51-1.82Z"/>
  <path class="cls-8" d="M3.9,114.05c4.65.17,9.31.61,13.95.88,4.14.25,8.29.32,12.43.6.39.34.39.3.43.82-.4.62-1.42.96-2.06,1.34l.15.34c.47.05.9.1,1.36.23,0,.08.03.17.03.25.06,1.97-4.8,16.28-6.17,17.47-2.26,1.96-18.79.98-22.6.93.14-1.14.17-2.3.24-3.45,6.04,0,12.08.57,18.11.54,2.52-2.47,3.44-6.1,4.51-9.36.32-1.26.95-2.98.65-4.26l-.28.65.31-.39v.18c-1.15.64-2.54,9.46-4.85,11.74-.49.48-1.14.57-1.81.63-2.19.2-4.55-.06-6.75-.15-3.27-.14-6.54-.21-9.81-.21.61-4.91,1.16-10.02,1.39-14.96,4.25-.42,23.1.92,25.15-.04l.03-.47-.29-.14c-5.95.79-12.46.11-18.48.04-1.82-.02-4.09.34-5.85-.06l-.25-.57c.3-.89.42-1.66.47-2.6Z"/>
  <path class="cls-6" d="M109.89,14.64l.22,3.59.12-3.25.17-.11c.13,1.18.1,2.4.12,3.58.07-1.17.11-2.34.13-3.5.45-.49.65-.43,1.29-.52.81,3.66,1,7.45.94,11.19-.03,1.86-.2,3.77-.04,5.62-2.41.36-4.97.41-7.41.46.03-1.66.32-4.08-.21-5.63-.12-.34-.14-.42-.47-.57-.06.03-.12.05-.18.09-.98.66-.85,2.02-1.18,3.02l-.12.35c-.49.18-.56.23-.79.73-.29.61-.41,1.35-.57,2-4.78.2-9.57.34-14.35.43-.13-.91-.14-2.23-.64-2.99-.13.32-.22.59-.31.94-.18-.87-.02-1.76-.18-2.62-.12-.67-.2-.7-.72-1.08-.63-.09-.96-.11-1.58.09-.45.57-.34,1.36-.36,2.05-.7.84-.36,2.5-.29,3.53-2.85.04-5.85-.38-8.69-.65.27-5.6.34-11.31.12-16.91,11.66,1.26,23.29.9,34.97.18Z"/>
  <path class="cls-4" d="M83.56,21.76c.96-.01,2.26.12,2.93.89.52.6.48,1.27.39,1.99l-.3.18c-.92-.52-1.03-1.59-1.91-2.16-.12-.08-.25-.15-.38-.23-.56.46-.96.76-1.23,1.46.06.55.14.87-.07,1.4-.6.03-.76.05-1.29-.22l-.13-.57c.39-1.39.78-1.92,1.99-2.73Z"/>
  <path class="cls-4" d="M105.02,21.73c1.05-.04,1.98,0,2.88.62.53.36.92,1.01.92,1.66,0,.6-.16.78-.54,1.18l-.53-.11c-.54-.77-.47-1.35-.54-2.26-.67-.14-1.18-.28-1.86-.08-.61.48-.79,1.53-1.02,2.25l-.32.15c-.49-.27-.52-.29-.76-.8.16-1.21.86-1.87,1.77-2.61Z"/>
  <path class="cls-6" d="M21.57,22.75c1.08.42,2.13.92,3.19,1.39,2.11.69,4.21,1.54,6.37,2.07-1.38,1.81-4.08,4.8-4.22,7.19,1.89-1.18,4-4.95,5.85-6.77l2.57.6,2.75.54c-2.49,5.27-4.58,10.74-7.18,15.95-.6-1.28-1.24-2.54-1.67-3.89-.95-1.8-1.83-3.63-2.66-5.49l-1.19,1.26c1.12,3.12,2.68,6.22,4.6,8.92-2.41,6.16-12.41,22.83-17.13,26.53-2.36,2.77-4.93,5.31-7.45,7.92,1.53-7.51,4.25-14.8,6.27-22.19,1.26-4.61,2.51-9.31,3.63-13.96,1.62-6.74,2.58-14.08,6.28-20.08Z"/>
  <path class="cls-8" d="M24.99,138.36c0,.57-.08,1.13-.08,1.7.05,3.71-.49,7.4-.67,11.1-.35,7.2-.48,14.48-.5,21.69-.01,3.41-.22,7.26.41,10.62-5.98-.87-11.99-1.58-17.97-2.5-.36-2.65-.34-5.48-.51-8.15-.44-6.67-.8-13.35-1.07-20.04-.18-4.28-.9-8.91-.48-13.17,1.3-1.04,16.65.9,20.51-1.07.12-.06.23-.13.35-.19Z"/>
  <path class="cls-6" d="M56.81,151.48l.37.11c3-2.18,5.76-4.89,8.59-7.3,8.39-7.13,17.23-14.76,27.01-19.9.15,13.52-1.8,27.15-3.06,40.6-3,32.31-5.93,66.34-14.43,97.66-1.36-2.25-2.72-4.78-4.62-6.61,2.87-13.79,5.76-27.76,7.68-41.72,1.17-8.85,2.13-17.72,2.86-26.62.39-4.81.62-9.64,1.06-14.45,1.19-13.04,2.88-26.04,4.28-39.06-5.18,3.07-9.78,7.35-14.47,11.11-4.77,3.84-9.8,7.3-15.11,10.36.03-1.25-.28-2.45-.55-3.66l.4-.51Z"/>
  <path class="cls-8" d="M159.54,121.27c.44.45,1.2,11.35,1.75,13.3,2.12,2.03,4.65,4.29,7.19,5.75,4.33,2.49,12.04-.72,16.56-2.03.46,14.06-.94,28.28-1.69,42.32-3.23.36-14.2,3.32-16.41,2.82-2.46-3.24-.2-31.03-1.89-38.18-.33.76-.19,1.83-.18,2.65.11,6.41.18,12.83.22,19.24,0,3.91-.41,8.04.06,11.92.24,2.01.72,3.71,1.63,5.52,5.48-.9,11.16-1.71,16.54-3.15l.15,3.48c-5.75,2-12.32,3.21-18.37,3.74-.41-.36-.83-.72-1.22-1.11-1.21-1.2-2.13-2.34-2.43-4.06-.85-4.89-.49-10.32-.57-15.3l-.42-28.72c-.08-6.07-.94-12.12-.91-18.17Z"/>
  <path class="cls-6" d="M100.17,124.4c1.96,1.57,26.04,12.72,29.12,13.61-2.82-2.06-7.39-3.33-9.52-6.05,4.62,1.48,14.04,6.75,18.22,9.55-5.43-.52-11.12-2.36-16.27-4.16-5.88-2.05-13.19-5.6-19.42-5.22,1.81,4.01,4.18,7.71,5.76,11.83,2.76,7.14,3.46,14.58,5.11,21.99-2.66,3.09-5.4,6.14-7.87,9.38.1,1.19.19,2.34.16,3.54,2.87-2.71,5.68-5.48,8.43-8.3,1.65,5.24,2.15,11.19,3.03,16.63l6.29,40.07c.67,4.25,1.38,8.49,2.12,12.72.59,3.48,1.03,6.86,2.15,10.21.11.33.11.28.04.49l-.16-.06c-2.04.36-7.07,7.63-8.34,9.56-.78,1.18-1.98,3.77-3.05,4.45l-.3-.15c-.7-1.62-.77-3.56-1.15-5.3-1.48-6.82-2.83-13.48-3.88-20.39-2.41-15.88-4.93-31.69-6.43-47.69-1.61-17.17-2.11-34.44-3.05-51.65-.28-5.05-1.2-9.96-.98-15.05Z"/>
  <path class="cls-8" d="M106.17,35.06c8.92.29,21.76-1.55,30.58-3.17,3.52-.65,6.97-1.77,10.54-2.16,7.07,18.64,15.53,34.72,28,50.37,2.51,3.15,5.43,7.05,8.82,9.21-.18,2.95-.67,5.87-.77,8.83-.02,1.85.09,4.2-.33,5.98l-.52,7.63c-8.29.95-16.59,1.74-24.91,2.37-.67,2.16,0,6.8.06,9.21.28,11.29.72,22.56.84,33.85.09,8.26-.27,16.71.35,24.94.12,1.6.6,3.13,1.35,4.55.95,1.81,2.35,3.19,4.1,4.21,4.82-.28,10.2-1.5,14.8-2.97-1.34,15.31-3.56,30.59-5.22,45.87-.8,7.42-2.3,14.53-1.49,22.04-2.72-3.7-4.79-7.82-7.54-11.5,1.85,5.32,6.78,10.21,7.89,15.13,1.29,5.67-.34,15.63-.87,21.74l-2.9,35.25c-.88,10.19-2.46,20.71-1.55,30.91.54,3.56-1.19,8.12-3.32,10.93-.22.29-.45.55-.71.8-.67,1.55-1.98,3.75-3.75,4.24-.34.1-.39.08-.71.09-.4-.34-.47-.37-.5-.93-.07-1.18.87-2.63,1.38-3.67.3-.46.37-.43.35-1.01-.54-.45-1.02-.48-1.71-.4-2.12.23-8.63,3.54-10.01,2.71,1.44-2.8,3.1-5.43,4.84-8.05-1.02.52-1.69,1.53-2.59,2.22-1.7,1.31-4.06,3.35-6.27,3.05-.69,1.45-.73,3.66-1,5.26-1.62-.29-3.34-.22-4.99-.33-5.95-.41-6.07-4.97-9.46-8.61-.38-.41-.61-.65-1.18-.68l-.18.31c.21,2.63,2.6,5.94,3.8,8.35-2.07-.73-2.97-2.09-4.76-3.16l.29.19-.56.17c-.17.79-.39,1.73-.89,2.37-.39.51-.91.79-1.55.85-.59.05-1.43-.06-1.88-.46-1.97-1.78-3.57-6.42-3.86-9.04-.63-5.56,2.16-10.22,1.93-15.5-.16-3.72-1.4-7.35-1.75-11.06-.54-5.74-.67-11.54-1.04-17.29-.42-6.36-1.1-12.76-1.22-19.13.08-3.71-2.18-21.33-.63-23.34.7-.91,1.84-1.18,2.51-2.32,1.53-2.6,5.39-8.11,7.42-10.24.3-.31.5-.49.65-.91l-.36-.28h.22s-.22-.3-.22-.3c.4-.42.59-.68,1.18-.79.26.74-.31,1.91-.29,2.79.48-.37.79-2.76.95-3.49.06-.2.07-.16-.04-.49-1.12-3.34-1.56-6.73-2.15-10.21-.74-4.23-1.44-8.48-2.12-12.72l-6.29-40.07c-.88-5.44-1.38-11.39-3.03-16.63-2.75,2.83-5.56,5.59-8.43,8.3.03-1.19-.06-2.35-.16-3.54,2.48-3.24,5.21-6.29,7.87-9.38-1.65-7.4-2.35-14.84-5.11-21.99-1.59-4.11-3.96-7.82-5.76-11.83,6.23-.38,13.54,3.17,19.42,5.22,5.15,1.79,10.84,3.63,16.27,4.16-4.18-2.8-13.6-8.07-18.22-9.55-3.08-1.59-6.16-3.24-9.29-4.74-4.53-2.17-9.23-4.21-13.55-6.78.71-9,.61-18.14.22-27.15,2.99-.79,5.51-2.06,7.56-4.42,5.36-6.18,4.18-18.55,3.99-26.31-.07-3.12.07-6.34-.19-9.44-.18-2.16-.91-4.34-1.24-6.5-.58-3.82-.85-7.72-1.1-11.57Z"/>
  <path class="cls-3" d="M149.47,237.53l.17.15c-.02,1.05-18.45,21.17-21.05,23.86-1.34,1.39-2.9,2.51-4.31,3.83-1.83,1.72-3.51,3.66-5.22,5.51l-.13-.07c.08-.16.2-.42.31-.56,1.64-2.07,3.32-4.13,4.84-6.31,1.05-1.49,1.96-3.11,3.12-4.52,2.1-2.56,4.66-4.9,6.99-7.27,4.92-5,9.88-10.15,15.28-14.63Z"/>
  <path class="cls-6" d="M163.99,73.95c3.65,5.01,6.42,10.57,10.21,15.51,1.55,2.02,6.55,8.34,9.14,8.68-.02,1.85.09,4.2-.33,5.98-.27-.07-.51-.13-.77-.24-10.46-4.51-14.47-20.17-18.26-29.93Z"/>
  <path class="cls-6" d="M125.22,281.46c-.59,8.97-1.27,17.93-2.03,26.88-.41,4.93-1.58,12.46-.86,17.16.25,1.62,1.12,3.1,2.19,4.32,4.47,5.1,9.73,9.52,12.36,15.96.3.74.76,1.75.74,2.55,0,.35-.19.4-.42.61-3.85.52-9.44-5.74-12.57-1.49-1.7,2.3-1.51,5.16-1.64,7.85-.03.71-.24,1.62-.15,2.32.04.33.07.35.17.61,1.4-1.69.82-8.28,3.4-8.58,1.38-.16,3.39,1.22,4.37,2.12,2.18,1.99,5.56,8.78,8.2,9.24.62-.34.81-.7,1-1.38.54-1.95.3-5.48,2.16-6.6,2.38-1.42,8.88-3.83,11.55-3.41.25.19.48.24.5.58.03.54-.34,1.39-.75,1.76-.05.04-.11.07-.16.11-1.02.52-1.69,1.53-2.59,2.22-1.7,1.31-4.06,3.35-6.27,3.05-.69,1.45-.73,3.66-1,5.26-1.62-.29-3.34-.22-4.99-.33-5.95-.41-6.07-4.97-9.46-8.61-.38-.41-.61-.65-1.18-.68l-.18.31c.21,2.63,2.6,5.94,3.8,8.35-2.07-.73-2.97-2.09-4.76-3.16l.29.19-.56.17c-.17.79-.39,1.73-.89,2.37-.39.51-.91.79-1.55.85-.59.05-1.43-.06-1.88-.46-1.97-1.78-3.57-6.42-3.86-9.04-.63-5.56,2.16-10.22,1.93-15.5-.16-3.72-1.4-7.35-1.75-11.06-.54-5.74-.67-11.54-1.04-17.29-.42-6.36-1.1-12.76-1.22-19.13l.46.61c.79-.04,7.58-7.57,8.67-8.71Z"/>
  <path class="cls-6" d="M172.55,217.23c.2-3.45,0-6.98-.09-10.43-.05-1.92.09-3.97-.18-5.86-.1-.67-.3-1.63-.78-2.14-1.3-1.36-7.71-1.47-10.93-4.02-3.46-2.74-5.14-7.03-5.58-11.31-.58-5.73-.31-11.81-.32-17.58-.08-11.39.07-22.77.47-34.15.12-2.84.16-5.68.12-8.52-.04-2.26-.22-4.63-.04-6.88.05-.65.1-1.25.57-1.74.46-.49,1.16-.45,1.79-.48-.67,2.16,0,6.8.06,9.21.28,11.29.72,22.56.84,33.85.09,8.26-.27,16.71.35,24.94.12,1.6.6,3.13,1.35,4.55.95,1.81,2.35,3.19,4.1,4.21,4.82-.28,10.2-1.5,14.8-2.97-1.34,15.31-3.56,30.59-5.22,45.87-.8,7.42-2.3,14.53-1.49,22.04-2.72-3.7-4.79-7.82-7.54-11.5,1.85,5.32,6.78,10.21,7.89,15.13,1.29,5.67-.34,15.63-.87,21.74l-2.9,35.25c-.88,10.19-2.46,20.71-1.55,30.91.54,3.56-1.19,8.12-3.32,10.93-.22.29-.45.55-.71.8.55-3.56,2.54-6.69,3.66-10.09-2.43-6.43-7.85-11.18-10.31-17.64,1.24.72,3.02,2.15,4.48,2.07.48-.03.84-.2,1.16-.57,1.17-1.32,1.63-3.54,1.92-5.24,1.19-6.85,1.46-14.01,1.94-20.95l1.88-27.27c.25-4.22,1.33-14.09.66-17.85-.67-3.77-2.56-7.64-3.92-11.22-3.31-8.71-6.87-18.17-7.71-27.52,1.32,2.08,2.17,4.85,3.17,7.13,2.33,5.29,4.89,10.24,8.33,14.91,0-4.55.18-16.78-.86-20.64-.71-2.64-4.19-6.79-5.61-9.44-2.64-4.94-4.16-10.01-5.65-15.38,2.52,2.97,4.87,6.09,7.45,9.01,2.71,3.07,5.68,5.94,8.56,8.85Z"/>
  <path class="cls-8" d="M43.35,29.13c13.25,3.07,26.27,5.66,39.92,6.07.02,11.96-3.1,23.16-6.14,34.65-.8,3.02-1.83,6.08-2.46,9.13,1.79.88,3.31,1.2,5.29,1.29.03-5.26,2.87-13.51,4.25-18.82,2.25-8.68,3.63-16.93,3.72-25.91,2.69.46,5.73.26,8.46.23.22,17.78-.12,35.54-.24,53.31-.07,10.35.67,20.53-.59,30.85-2.55,2.26-5.85,3.71-8.72,5.54-3.58,3.16-7.78,5.75-11.52,8.75-3.38,2.71-9.32,8.76-12.67,10.54-2.12,2.11-4.08,4.29-5.85,6.71l-.4.51c.27,1.21.57,2.41.55,3.66,5.3-3.06,10.34-6.51,15.11-10.36,4.69-3.76,9.29-8.05,14.47-11.11-1.4,13.02-3.08,26.02-4.28,39.06-.44,4.81-.67,9.64-1.06,14.45-.74,8.9-1.69,17.77-2.86,26.62-1.92,13.96-4.8,27.93-7.68,41.72.05.89.09,1.76.27,2.63,2.04,3.75,4.4,8.75,4.63,13.03.28,5.27-1.15,11.57-1.66,16.9-1.1,11.55-1.84,23.13-2.92,34.69-.22,2.34-.42,4.7-.76,7.03-.31,2.08-.81,4.21-.95,6.31-.16,2.31.38,4.47.87,6.71,1.17,5.33.73,9.51-.81,14.71-.29.98-.71,2.33-1.69,2.85-1.57.83-4.14-.77-5.45-.3-.99.35-1.01,1.32-2.37,1.3-.37-.4-.46-.61-.42-1.16.17-2.64,2.05-4.96,3.27-7.22-2.74,2.49-5.01,5.67-7.29,8.58-4.33.08-8.64.33-12.02-2.97-1.14-1.11-2.09-2.34-2.92-3.7l-.39-.09c-.8,1.23.46,4.62.32,6.24-.01.12-.18.35-.24.46-3.86,1.3-8.41-.06-12-1.62-2.37-3.36-4.2-7.05-6.56-10.43,4.98-7.24,11.13-13.73,15.73-21.26-1.83,1.63-3.58,3.38-5.36,5.07-.89-2.2-.21-5.39-.37-7.78-2.53,2.41-7.73,8.45-10.12,10.04l-2.79-38.83c-.6-7.47-1.03-14.93-1.55-22.4-.28-3.95-.87-7.95-.81-11.9.05-2.95.5-5.93.77-8.87.12-1.32.73-4.87-.07-5.91.29-2.98-.3-6.28-.59-9.26-.3-3.06-.79-6.08-1.13-9.14l-3.24-28c-.25-2.05-.62-8.12-1.15-9.53-.14-.38-.21-.57-.16-.99.38-.37,2.53.5,3.11.68,1.43.46,2.76.59,4.23.85,4.78.84,8.88,1.11,13.73.56,1.04-.12,3.7-3.38,4.42-4.32.04-.06.08-.11.13-.17l-1.9-64.18c-.02-.63.03-1.1-.34-1.64l-1.01.54-.35-.2-.12.17.24.1-.27.02c.27-.57.74-1.1,1.09-1.63l-.33-.28c-.73-1.97-.22-6.08-.24-8.34-4.65-.58-9.32-.99-14-1.23-4.68-.24-9.37-.3-14.05-.19.26-.89.55-1.8.57-2.73.11-3.69-.57-7.54-.9-11.22-.24-2.63-.23-5.27-.36-7.91,1.74-1.57,3.43-3.18,5.08-4.83,1.65-1.65,3.26-3.35,4.82-5.09,1.56-1.74,3.08-3.52,4.55-5.33,1.47-1.82,2.89-3.67,4.26-5.56,1.37-1.89,2.7-3.82,3.97-5.78s2.49-3.95,3.66-5.98c1.17-2.02,2.28-4.08,3.35-6.16,1.06-2.08,2.07-4.19,3.02-6.33,2.32-5.22,4.02-10.67,6.24-15.91Z"/>
  <path class="cls-3" d="M51.89,38.41l.34.28c-.56,1.52-4.78,4.83-6.11,6.05,0-.12.02-.24.02-.36,0-.1-.03-.19-.04-.29.68-1.67,4.34-4.4,5.79-5.68Z"/>
  <path class="cls-2" d="M31.17,227.81c.07.39.04.62-.06,1.01-1.16,4.5-7.33,23.34-10.98,25.45-.17-.48-.12-.28-.23-.77-.15-.67.67-1.9.99-2.57,1.97-4.09,4.16-8.1,5.92-12.29,1.48-3.53,2.3-7.61,4.35-10.82Z"/>
  <path class="cls-6" d="M62.66,144.77c.24-.43.5-.85.78-1.26,3.06-4.45,18.35-17.16,23.41-18.03-3.58,3.16-7.78,5.75-11.52,8.75-3.38,2.71-9.32,8.76-12.67,10.54Z"/>
  <path class="cls-3" d="M43.14,53.57l.09.16c-.32,1.03-33.28,34.34-37.15,38.35-.28-.24-.15-.08-.31-.53.27-.62,9.79-11.19,10.75-12.04.84-.75,1.87-1.26,2.68-2.05,2.67-2.6,5.12-5.46,7.74-8.12,5.32-5.34,10.72-10.6,16.21-15.76Z"/>
  <path class="cls-3" d="M33.72,122l.19-.18c3.75-3.49,28.12-29.92,30.58-30.59l.34.16c-2.66,3.4-6.07,6.45-9.08,9.57-3.77,3.89-7.37,7.94-11.23,11.75-1.46,1.44-9.92,9.33-10.4,10.28l-1.01.54-.35-.2-.12.17.24.1-.27.02c.27-.57.74-1.1,1.09-1.63Z"/>
  <path class="cls-6" d="M55.12,253.35c5.13,5.68,9.33,12.14,14.17,18.06,1.44-4.71.72-8.57,1.64-12.75,2.04,3.75,4.4,8.75,4.63,13.03.28,5.27-1.15,11.57-1.66,16.9-1.1,11.55-1.84,23.13-2.92,34.69-.22,2.34-.42,4.7-.76,7.03-.31,2.08-.81,4.21-.95,6.31-.16,2.31.38,4.47.87,6.71,1.17,5.33.73,9.51-.81,14.71-.29.98-.71,2.33-1.69,2.85-1.57.83-4.14-.77-5.45-.3-.99.35-1.01,1.32-2.37,1.3-.37-.4-.46-.61-.42-1.16.17-2.64,2.05-4.96,3.27-7.22-2.74,2.49-5.01,5.67-7.29,8.58-4.33.08-8.64.33-12.02-2.97-1.14-1.11-2.09-2.34-2.92-3.7l-.39-.09c-.8,1.23.46,4.62.32,6.24-.67-2.21-1.45-7.19-.29-9.24.3-.53.43-.58.96-.75l.17.28c1.05.25,4.21,5.54,5.61,6.65.03.02.06.02.09.03.74.93,1.32,1.54,2.37,2.12.09.05.18.1.27.14,3.64-2.55,9.31-8.96,13.98-8.97.47,0,.85-.03,1.32-.15.09-.18.25-.49.29-.68.5-2.97-7.46-3.09-8.77-5.12-1.31-2.02,6.85-10.43,8.21-12.42.39-.56.73-1.16,1.01-1.78.28-.62.5-1.27.66-1.94.32-1.34.23-12.79-.25-13.55l-.07-1.5c.26-1.88-.98-9.04-1.22-11.48-.99-10.14-1.14-20.6-3.48-30.54-.77-3.39-1.74-6.72-2.91-10-1.05-2.97-2.28-5.89-3.1-8.93l-.11-.42Z"/>
</svg>